<mxfile host="app.diagrams.net" modified="2022-04-06T03:29:07.782Z" agent="5.0 (Windows NT 10.0; Win64; x64) AppleWebKit/537.36 (KHTML, like Gecko) Chrome/92.0.4515.159 Safari/537.36" etag="h5nxvE3cd_XdfGP2v9tj" version="17.4.0" type="github">
  <diagram id="QbE3X5kymp9kcQfLB9qG" name="Page-1">
    <mxGraphModel dx="2062" dy="1122" grid="1" gridSize="10" guides="1" tooltips="1" connect="1" arrows="1" fold="1" page="1" pageScale="1" pageWidth="827" pageHeight="1169" math="0" shadow="0">
      <root>
        <mxCell id="0" />
        <mxCell id="1" parent="0" />
        <mxCell id="tt3gA2rMx5fLz4AcYwe5-7" style="edgeStyle=orthogonalEdgeStyle;rounded=0;orthogonalLoop=1;jettySize=auto;html=1;" edge="1" parent="1" source="tt3gA2rMx5fLz4AcYwe5-1" target="tt3gA2rMx5fLz4AcYwe5-2">
          <mxGeometry relative="1" as="geometry" />
        </mxCell>
        <mxCell id="tt3gA2rMx5fLz4AcYwe5-1" value="用户（客体）" style="ellipse;whiteSpace=wrap;html=1;" vertex="1" parent="1">
          <mxGeometry x="120" y="400" width="120" height="70" as="geometry" />
        </mxCell>
        <mxCell id="tt3gA2rMx5fLz4AcYwe5-8" style="edgeStyle=orthogonalEdgeStyle;rounded=0;orthogonalLoop=1;jettySize=auto;html=1;" edge="1" parent="1" source="tt3gA2rMx5fLz4AcYwe5-2" target="tt3gA2rMx5fLz4AcYwe5-3">
          <mxGeometry relative="1" as="geometry" />
        </mxCell>
        <mxCell id="tt3gA2rMx5fLz4AcYwe5-2" value="身份认证" style="rounded=0;whiteSpace=wrap;html=1;" vertex="1" parent="1">
          <mxGeometry x="320" y="405" width="120" height="60" as="geometry" />
        </mxCell>
        <mxCell id="tt3gA2rMx5fLz4AcYwe5-9" style="edgeStyle=orthogonalEdgeStyle;rounded=0;orthogonalLoop=1;jettySize=auto;html=1;entryX=0;entryY=0.5;entryDx=0;entryDy=0;" edge="1" parent="1" source="tt3gA2rMx5fLz4AcYwe5-3" target="tt3gA2rMx5fLz4AcYwe5-4">
          <mxGeometry relative="1" as="geometry" />
        </mxCell>
        <mxCell id="tt3gA2rMx5fLz4AcYwe5-3" value="访问控制" style="rounded=0;whiteSpace=wrap;html=1;" vertex="1" parent="1">
          <mxGeometry x="520" y="405" width="120" height="60" as="geometry" />
        </mxCell>
        <mxCell id="tt3gA2rMx5fLz4AcYwe5-10" style="edgeStyle=orthogonalEdgeStyle;rounded=0;orthogonalLoop=1;jettySize=auto;html=1;entryX=0;entryY=0.5;entryDx=0;entryDy=0;" edge="1" parent="1" source="tt3gA2rMx5fLz4AcYwe5-4" target="tt3gA2rMx5fLz4AcYwe5-5">
          <mxGeometry relative="1" as="geometry" />
        </mxCell>
        <mxCell id="tt3gA2rMx5fLz4AcYwe5-4" value="资产保护" style="rounded=0;whiteSpace=wrap;html=1;" vertex="1" parent="1">
          <mxGeometry x="720" y="405" width="120" height="60" as="geometry" />
        </mxCell>
        <mxCell id="tt3gA2rMx5fLz4AcYwe5-5" value="资产（主体）" style="ellipse;whiteSpace=wrap;html=1;" vertex="1" parent="1">
          <mxGeometry x="920" y="400" width="120" height="70" as="geometry" />
        </mxCell>
        <mxCell id="tt3gA2rMx5fLz4AcYwe5-6" value="授权" style="rounded=0;whiteSpace=wrap;html=1;" vertex="1" parent="1">
          <mxGeometry x="520" y="240" width="120" height="60" as="geometry" />
        </mxCell>
        <mxCell id="tt3gA2rMx5fLz4AcYwe5-21" style="edgeStyle=orthogonalEdgeStyle;curved=1;rounded=0;orthogonalLoop=1;jettySize=auto;html=1;entryX=0;entryY=0.5;entryDx=0;entryDy=0;fontSize=15;dashed=1;" edge="1" parent="1" source="tt3gA2rMx5fLz4AcYwe5-11" target="tt3gA2rMx5fLz4AcYwe5-6">
          <mxGeometry relative="1" as="geometry">
            <Array as="points">
              <mxPoint x="380" y="310" />
              <mxPoint x="520" y="310" />
            </Array>
          </mxGeometry>
        </mxCell>
        <mxCell id="tt3gA2rMx5fLz4AcYwe5-22" style="edgeStyle=orthogonalEdgeStyle;curved=1;rounded=0;orthogonalLoop=1;jettySize=auto;html=1;entryX=0.5;entryY=0;entryDx=0;entryDy=0;fontSize=15;dashed=1;" edge="1" parent="1" source="tt3gA2rMx5fLz4AcYwe5-11" target="tt3gA2rMx5fLz4AcYwe5-2">
          <mxGeometry relative="1" as="geometry" />
        </mxCell>
        <mxCell id="tt3gA2rMx5fLz4AcYwe5-24" style="edgeStyle=orthogonalEdgeStyle;curved=1;rounded=0;orthogonalLoop=1;jettySize=auto;html=1;entryX=0.5;entryY=0;entryDx=0;entryDy=0;fontSize=15;exitX=0.5;exitY=1;exitDx=0;exitDy=0;dashed=1;" edge="1" parent="1" source="tt3gA2rMx5fLz4AcYwe5-11" target="tt3gA2rMx5fLz4AcYwe5-3">
          <mxGeometry relative="1" as="geometry" />
        </mxCell>
        <mxCell id="tt3gA2rMx5fLz4AcYwe5-26" style="edgeStyle=orthogonalEdgeStyle;curved=1;rounded=0;orthogonalLoop=1;jettySize=auto;html=1;exitX=0.5;exitY=1;exitDx=0;exitDy=0;fontSize=15;dashed=1;" edge="1" parent="1" source="tt3gA2rMx5fLz4AcYwe5-11" target="tt3gA2rMx5fLz4AcYwe5-4">
          <mxGeometry relative="1" as="geometry" />
        </mxCell>
        <mxCell id="tt3gA2rMx5fLz4AcYwe5-11" value="&lt;font style=&quot;font-size: 15px&quot;&gt;审计&lt;/font&gt;" style="rounded=0;whiteSpace=wrap;html=1;" vertex="1" parent="1">
          <mxGeometry x="320" y="240" width="120" height="60" as="geometry" />
        </mxCell>
        <mxCell id="tt3gA2rMx5fLz4AcYwe5-13" style="edgeStyle=orthogonalEdgeStyle;rounded=0;orthogonalLoop=1;jettySize=auto;html=1;entryX=0.5;entryY=1;entryDx=0;entryDy=0;fontSize=15;dashed=1;curved=1;" edge="1" parent="1" source="tt3gA2rMx5fLz4AcYwe5-12" target="tt3gA2rMx5fLz4AcYwe5-4">
          <mxGeometry relative="1" as="geometry" />
        </mxCell>
        <mxCell id="tt3gA2rMx5fLz4AcYwe5-16" value="数据加密" style="edgeLabel;html=1;align=center;verticalAlign=middle;resizable=0;points=[];fontSize=15;" vertex="1" connectable="0" parent="tt3gA2rMx5fLz4AcYwe5-13">
          <mxGeometry x="-0.48" y="19" relative="1" as="geometry">
            <mxPoint x="40" y="-41" as="offset" />
          </mxGeometry>
        </mxCell>
        <mxCell id="tt3gA2rMx5fLz4AcYwe5-14" style="edgeStyle=orthogonalEdgeStyle;curved=1;rounded=0;orthogonalLoop=1;jettySize=auto;html=1;entryX=0.5;entryY=1;entryDx=0;entryDy=0;dashed=1;fontSize=15;" edge="1" parent="1" source="tt3gA2rMx5fLz4AcYwe5-12" target="tt3gA2rMx5fLz4AcYwe5-2">
          <mxGeometry relative="1" as="geometry" />
        </mxCell>
        <mxCell id="tt3gA2rMx5fLz4AcYwe5-15" value="数字签名认证" style="edgeLabel;html=1;align=center;verticalAlign=middle;resizable=0;points=[];fontSize=15;" vertex="1" connectable="0" parent="tt3gA2rMx5fLz4AcYwe5-14">
          <mxGeometry x="0.392" y="-15" relative="1" as="geometry">
            <mxPoint as="offset" />
          </mxGeometry>
        </mxCell>
        <mxCell id="tt3gA2rMx5fLz4AcYwe5-12" value="密码学/密码技术" style="rounded=1;whiteSpace=wrap;html=1;fontSize=15;" vertex="1" parent="1">
          <mxGeometry x="495" y="570" width="170" height="60" as="geometry" />
        </mxCell>
        <mxCell id="tt3gA2rMx5fLz4AcYwe5-20" value="" style="endArrow=classic;startArrow=classic;html=1;rounded=0;fontSize=15;curved=1;entryX=0.5;entryY=1;entryDx=0;entryDy=0;exitX=0.5;exitY=0;exitDx=0;exitDy=0;dashed=1;" edge="1" parent="1" source="tt3gA2rMx5fLz4AcYwe5-3" target="tt3gA2rMx5fLz4AcYwe5-6">
          <mxGeometry width="50" height="50" relative="1" as="geometry">
            <mxPoint x="520" y="390" as="sourcePoint" />
            <mxPoint x="570" y="340" as="targetPoint" />
          </mxGeometry>
        </mxCell>
      </root>
    </mxGraphModel>
  </diagram>
</mxfile>
